<mxfile host="app.diagrams.net" modified="2024-06-17T09:58:10.340Z" agent="Mozilla/5.0 (Windows NT 10.0; Win64; x64) AppleWebKit/537.36 (KHTML, like Gecko) Chrome/126.0.0.0 Safari/537.36" etag="Mwww8owgvQs4MSFkbd2I" version="24.5.4" type="device">
  <diagram name="Page-1" id="yBCn2xW9uxFF5KQDBl79">
    <mxGraphModel dx="3134" dy="1846" grid="1" gridSize="10" guides="1" tooltips="1" connect="1" arrows="1" fold="1" page="1" pageScale="1" pageWidth="850" pageHeight="1100" math="0" shadow="0">
      <root>
        <mxCell id="0" />
        <mxCell id="1" parent="0" />
        <mxCell id="TZ-CbIlfldpk1iJT69l_-2" value="user stories" style="rounded=1;whiteSpace=wrap;html=1;glass=0;" vertex="1" parent="1">
          <mxGeometry x="-860" y="400" width="120" height="60" as="geometry" />
        </mxCell>
        <mxCell id="TZ-CbIlfldpk1iJT69l_-3" value="backlog" style="rounded=1;whiteSpace=wrap;html=1;" vertex="1" parent="1">
          <mxGeometry x="-870" y="240" width="120" height="60" as="geometry" />
        </mxCell>
        <mxCell id="TZ-CbIlfldpk1iJT69l_-4" value="design SQL database" style="rounded=1;whiteSpace=wrap;html=1;" vertex="1" parent="1">
          <mxGeometry x="-480" y="310" width="120" height="60" as="geometry" />
        </mxCell>
        <mxCell id="TZ-CbIlfldpk1iJT69l_-5" value="implement SQL database" style="rounded=1;whiteSpace=wrap;html=1;" vertex="1" parent="1">
          <mxGeometry x="-280" y="310" width="120" height="60" as="geometry" />
        </mxCell>
        <mxCell id="TZ-CbIlfldpk1iJT69l_-6" value="" style="endArrow=classic;html=1;rounded=0;exitX=1;exitY=0.5;exitDx=0;exitDy=0;edgeStyle=orthogonalEdgeStyle;entryX=0.4;entryY=1.05;entryDx=0;entryDy=0;entryPerimeter=0;" edge="1" parent="1" source="TZ-CbIlfldpk1iJT69l_-2" target="TZ-CbIlfldpk1iJT69l_-9">
          <mxGeometry width="50" height="50" relative="1" as="geometry">
            <mxPoint x="-630" y="410" as="sourcePoint" />
            <mxPoint x="-610" y="360" as="targetPoint" />
          </mxGeometry>
        </mxCell>
        <mxCell id="TZ-CbIlfldpk1iJT69l_-7" value="" style="endArrow=classic;html=1;rounded=0;exitX=1;exitY=0.5;exitDx=0;exitDy=0;entryX=0;entryY=0.5;entryDx=0;entryDy=0;edgeStyle=orthogonalEdgeStyle;" edge="1" parent="1" source="TZ-CbIlfldpk1iJT69l_-9" target="TZ-CbIlfldpk1iJT69l_-4">
          <mxGeometry width="50" height="50" relative="1" as="geometry">
            <mxPoint x="-630" y="410" as="sourcePoint" />
            <mxPoint x="-580" y="360" as="targetPoint" />
          </mxGeometry>
        </mxCell>
        <mxCell id="TZ-CbIlfldpk1iJT69l_-8" value="" style="endArrow=classic;html=1;rounded=0;exitX=1;exitY=0.5;exitDx=0;exitDy=0;" edge="1" parent="1" source="TZ-CbIlfldpk1iJT69l_-4" target="TZ-CbIlfldpk1iJT69l_-5">
          <mxGeometry width="50" height="50" relative="1" as="geometry">
            <mxPoint x="-630" y="410" as="sourcePoint" />
            <mxPoint x="-580" y="360" as="targetPoint" />
          </mxGeometry>
        </mxCell>
        <mxCell id="TZ-CbIlfldpk1iJT69l_-11" value="" style="endArrow=classic;html=1;rounded=0;exitX=0.5;exitY=1;exitDx=0;exitDy=0;entryX=0;entryY=0.5;entryDx=0;entryDy=0;edgeStyle=orthogonalEdgeStyle;" edge="1" parent="1" source="TZ-CbIlfldpk1iJT69l_-3" target="TZ-CbIlfldpk1iJT69l_-9">
          <mxGeometry width="50" height="50" relative="1" as="geometry">
            <mxPoint x="-810" y="300" as="sourcePoint" />
            <mxPoint x="-480" y="340" as="targetPoint" />
          </mxGeometry>
        </mxCell>
        <mxCell id="TZ-CbIlfldpk1iJT69l_-9" value="set up Jira" style="rounded=1;whiteSpace=wrap;html=1;" vertex="1" parent="1">
          <mxGeometry x="-660" y="310" width="120" height="60" as="geometry" />
        </mxCell>
        <mxCell id="TZ-CbIlfldpk1iJT69l_-12" value="set up Github repository" style="rounded=1;whiteSpace=wrap;html=1;" vertex="1" parent="1">
          <mxGeometry x="-630" y="120" width="120" height="60" as="geometry" />
        </mxCell>
        <mxCell id="TZ-CbIlfldpk1iJT69l_-13" value="design front-end" style="rounded=1;whiteSpace=wrap;html=1;" vertex="1" parent="1">
          <mxGeometry x="-410" y="120" width="120" height="60" as="geometry" />
        </mxCell>
        <mxCell id="TZ-CbIlfldpk1iJT69l_-15" value="full-stack integration" style="rounded=1;whiteSpace=wrap;html=1;" vertex="1" parent="1">
          <mxGeometry x="-160" y="190" width="120" height="60" as="geometry" />
        </mxCell>
        <mxCell id="TZ-CbIlfldpk1iJT69l_-16" value="issues?" style="rhombus;whiteSpace=wrap;html=1;direction=south;" vertex="1" parent="1">
          <mxGeometry x="80" y="180" width="80" height="80" as="geometry" />
        </mxCell>
        <mxCell id="TZ-CbIlfldpk1iJT69l_-17" value="fix issues" style="rounded=1;whiteSpace=wrap;html=1;" vertex="1" parent="1">
          <mxGeometry x="-10" y="330" width="120" height="60" as="geometry" />
        </mxCell>
        <mxCell id="TZ-CbIlfldpk1iJT69l_-18" value="push changes to Github" style="rounded=1;whiteSpace=wrap;html=1;" vertex="1" parent="1">
          <mxGeometry x="-10" y="-110" width="120" height="60" as="geometry" />
        </mxCell>
        <mxCell id="TZ-CbIlfldpk1iJT69l_-19" value="" style="endArrow=classic;html=1;rounded=0;exitX=0.5;exitY=0;exitDx=0;exitDy=0;entryX=0.5;entryY=1;entryDx=0;entryDy=0;edgeStyle=orthogonalEdgeStyle;" edge="1" parent="1" source="TZ-CbIlfldpk1iJT69l_-9" target="TZ-CbIlfldpk1iJT69l_-12">
          <mxGeometry width="50" height="50" relative="1" as="geometry">
            <mxPoint x="-160" y="310" as="sourcePoint" />
            <mxPoint x="-110" y="260" as="targetPoint" />
          </mxGeometry>
        </mxCell>
        <mxCell id="TZ-CbIlfldpk1iJT69l_-20" value="" style="endArrow=classic;html=1;rounded=0;exitX=1;exitY=0.5;exitDx=0;exitDy=0;entryX=0;entryY=0.5;entryDx=0;entryDy=0;" edge="1" parent="1" source="TZ-CbIlfldpk1iJT69l_-12" target="TZ-CbIlfldpk1iJT69l_-13">
          <mxGeometry width="50" height="50" relative="1" as="geometry">
            <mxPoint x="-160" y="310" as="sourcePoint" />
            <mxPoint x="-110" y="260" as="targetPoint" />
          </mxGeometry>
        </mxCell>
        <mxCell id="TZ-CbIlfldpk1iJT69l_-21" value="" style="endArrow=classic;html=1;rounded=0;exitX=0.5;exitY=0;exitDx=0;exitDy=0;entryX=0.25;entryY=1;entryDx=0;entryDy=0;edgeStyle=orthogonalEdgeStyle;" edge="1" parent="1" source="TZ-CbIlfldpk1iJT69l_-5" target="TZ-CbIlfldpk1iJT69l_-15">
          <mxGeometry width="50" height="50" relative="1" as="geometry">
            <mxPoint x="-160" y="310" as="sourcePoint" />
            <mxPoint x="-110" y="260" as="targetPoint" />
          </mxGeometry>
        </mxCell>
        <mxCell id="TZ-CbIlfldpk1iJT69l_-22" value="" style="endArrow=classic;html=1;rounded=0;exitX=1;exitY=0.5;exitDx=0;exitDy=0;entryX=0.5;entryY=0;entryDx=0;entryDy=0;edgeStyle=orthogonalEdgeStyle;" edge="1" parent="1" source="TZ-CbIlfldpk1iJT69l_-13" target="TZ-CbIlfldpk1iJT69l_-15">
          <mxGeometry width="50" height="50" relative="1" as="geometry">
            <mxPoint x="-160" y="310" as="sourcePoint" />
            <mxPoint x="-110" y="260" as="targetPoint" />
          </mxGeometry>
        </mxCell>
        <mxCell id="TZ-CbIlfldpk1iJT69l_-23" value="" style="endArrow=classic;html=1;rounded=0;entryX=0.5;entryY=1;entryDx=0;entryDy=0;exitX=1;exitY=0.5;exitDx=0;exitDy=0;" edge="1" parent="1" source="TZ-CbIlfldpk1iJT69l_-15" target="TZ-CbIlfldpk1iJT69l_-16">
          <mxGeometry width="50" height="50" relative="1" as="geometry">
            <mxPoint x="-100" y="250" as="sourcePoint" />
            <mxPoint x="-110" y="260" as="targetPoint" />
          </mxGeometry>
        </mxCell>
        <mxCell id="TZ-CbIlfldpk1iJT69l_-25" value="" style="endArrow=classic;html=1;rounded=0;exitX=0;exitY=0.5;exitDx=0;exitDy=0;edgeStyle=orthogonalEdgeStyle;" edge="1" parent="1" source="TZ-CbIlfldpk1iJT69l_-16">
          <mxGeometry width="50" height="50" relative="1" as="geometry">
            <mxPoint x="-160" y="310" as="sourcePoint" />
            <mxPoint x="50" y="100" as="targetPoint" />
          </mxGeometry>
        </mxCell>
        <mxCell id="TZ-CbIlfldpk1iJT69l_-26" value="No" style="edgeLabel;html=1;align=center;verticalAlign=middle;resizable=0;points=[];" vertex="1" connectable="0" parent="TZ-CbIlfldpk1iJT69l_-25">
          <mxGeometry x="-0.0154" y="5" relative="1" as="geometry">
            <mxPoint as="offset" />
          </mxGeometry>
        </mxCell>
        <mxCell id="TZ-CbIlfldpk1iJT69l_-27" value="" style="endArrow=classic;html=1;rounded=0;entryX=0.5;entryY=0;entryDx=0;entryDy=0;exitX=1;exitY=0.5;exitDx=0;exitDy=0;edgeStyle=orthogonalEdgeStyle;" edge="1" parent="1" source="TZ-CbIlfldpk1iJT69l_-16" target="TZ-CbIlfldpk1iJT69l_-17">
          <mxGeometry width="50" height="50" relative="1" as="geometry">
            <mxPoint x="-160" y="310" as="sourcePoint" />
            <mxPoint x="-110" y="260" as="targetPoint" />
          </mxGeometry>
        </mxCell>
        <mxCell id="TZ-CbIlfldpk1iJT69l_-29" value="Yes" style="edgeLabel;html=1;align=center;verticalAlign=middle;resizable=0;points=[];" vertex="1" connectable="0" parent="TZ-CbIlfldpk1iJT69l_-27">
          <mxGeometry x="-0.4286" y="-4" relative="1" as="geometry">
            <mxPoint as="offset" />
          </mxGeometry>
        </mxCell>
        <mxCell id="TZ-CbIlfldpk1iJT69l_-28" value="" style="endArrow=classic;html=1;rounded=0;exitX=0.25;exitY=0;exitDx=0;exitDy=0;edgeStyle=orthogonalEdgeStyle;" edge="1" parent="1" source="TZ-CbIlfldpk1iJT69l_-17">
          <mxGeometry width="50" height="50" relative="1" as="geometry">
            <mxPoint x="-160" y="310" as="sourcePoint" />
            <mxPoint x="-100" y="250" as="targetPoint" />
          </mxGeometry>
        </mxCell>
        <mxCell id="TZ-CbIlfldpk1iJT69l_-30" value="fix code , add comments" style="rounded=1;whiteSpace=wrap;html=1;" vertex="1" parent="1">
          <mxGeometry x="-10" y="40" width="120" height="60" as="geometry" />
        </mxCell>
        <mxCell id="TZ-CbIlfldpk1iJT69l_-31" value="" style="endArrow=classic;html=1;rounded=0;exitX=0.5;exitY=0;exitDx=0;exitDy=0;entryX=0.5;entryY=1;entryDx=0;entryDy=0;" edge="1" parent="1" source="TZ-CbIlfldpk1iJT69l_-30" target="TZ-CbIlfldpk1iJT69l_-18">
          <mxGeometry width="50" height="50" relative="1" as="geometry">
            <mxPoint x="-160" y="110" as="sourcePoint" />
            <mxPoint x="-110" y="60" as="targetPoint" />
          </mxGeometry>
        </mxCell>
        <mxCell id="TZ-CbIlfldpk1iJT69l_-32" value="" style="endArrow=classic;html=1;rounded=0;exitX=0.808;exitY=-0.05;exitDx=0;exitDy=0;entryX=0;entryY=0.5;entryDx=0;entryDy=0;edgeStyle=orthogonalEdgeStyle;exitPerimeter=0;" edge="1" parent="1" source="TZ-CbIlfldpk1iJT69l_-15" target="TZ-CbIlfldpk1iJT69l_-18">
          <mxGeometry width="50" height="50" relative="1" as="geometry">
            <mxPoint x="-160" y="210" as="sourcePoint" />
            <mxPoint x="-110" y="160" as="targetPoint" />
          </mxGeometry>
        </mxCell>
        <mxCell id="TZ-CbIlfldpk1iJT69l_-33" value="add demo, automatic tests" style="rounded=1;whiteSpace=wrap;html=1;" vertex="1" parent="1">
          <mxGeometry x="160" y="40" width="120" height="60" as="geometry" />
        </mxCell>
        <mxCell id="TZ-CbIlfldpk1iJT69l_-34" value="" style="endArrow=classic;html=1;rounded=0;exitX=0.5;exitY=0;exitDx=0;exitDy=0;entryX=0.5;entryY=1;entryDx=0;entryDy=0;edgeStyle=orthogonalEdgeStyle;" edge="1" parent="1" source="TZ-CbIlfldpk1iJT69l_-16" target="TZ-CbIlfldpk1iJT69l_-33">
          <mxGeometry width="50" height="50" relative="1" as="geometry">
            <mxPoint x="-160" y="210" as="sourcePoint" />
            <mxPoint x="-110" y="160" as="targetPoint" />
          </mxGeometry>
        </mxCell>
        <mxCell id="TZ-CbIlfldpk1iJT69l_-35" value="" style="endArrow=classic;html=1;rounded=0;exitX=0.617;exitY=-0.017;exitDx=0;exitDy=0;exitPerimeter=0;entryX=1;entryY=0.5;entryDx=0;entryDy=0;edgeStyle=orthogonalEdgeStyle;" edge="1" parent="1" source="TZ-CbIlfldpk1iJT69l_-33" target="TZ-CbIlfldpk1iJT69l_-18">
          <mxGeometry width="50" height="50" relative="1" as="geometry">
            <mxPoint x="-160" y="210" as="sourcePoint" />
            <mxPoint x="-110" y="160" as="targetPoint" />
          </mxGeometry>
        </mxCell>
      </root>
    </mxGraphModel>
  </diagram>
</mxfile>
